<?xml version="1.0" encoding="utf-8"?>
<!-- Generator: Adobe Illustrator 27.6.1, SVG Export Plug-In . SVG Version: 6.00 Build 0)  -->
<svg version="1.1" id="Camada_1" xmlns="http://www.w3.org/2000/svg" xmlns:xlink="http://www.w3.org/1999/xlink" x="0px" y="0px"
	 viewBox="0 0 600 184.6" style="enable-background:new 0 0 600 184.6;" xml:space="preserve">
<style type="text/css">
	.st0{fill-rule:evenodd;clip-rule:evenodd;fill:#AF914B;}
	.st1{fill:#AF914B;}
</style>
<g>
	<path class="st0" d="M214.1,107.8h-1.9l-1.2-5.5c-1.5,0-3.7,0-6.5-0.1c-3-0.1-5.1-0.1-6.5-0.1v35.6l5,1v1.9h-15.3v-1.9l5.1-1v-35.6
		c-1.4,0-3.5,0-6.2,0.1c-2.7,0.1-4.8,0.1-6.2,0.1l-1.2,5.5h-1.9l0.5-8.9h35.9L214.1,107.8L214.1,107.8z M259.7,140.6h-10.9v-1.9
		l1.4-1v-17.4h-22v17.4l1.4,1v1.9h-10.9v-1.9l4.3-1v-35.8l-4.3-1v-1.9h10.9v1.9l-1.4,1v15.6h22v-15.6l-1.4-1v-1.9h10.9v1.9l-4.3,1
		v35.8l4.3,1V140.6L259.7,140.6z M303.7,140.6h-10.6v-1.9l1.3-1l-4.6-12.6h-14.2l-4.2,12.6l1.4,1v1.9h-8.4v-1.9l3.6-1L282.3,98h2.7
		l15.2,39.6l3.5,1V140.6L303.7,140.6z M288.7,122.2l-6.2-16.6l-5.8,16.6H288.7L288.7,122.2z M333.5,100.8v-1.9h-9v1.9l1.4,1
		l-8.8,17.6l-10.1-17.6c0.6-0.4,1.1-0.7,1.4-1v-1.9H297v1.9l0,0l4.3,1l11.9,21.2v14.6l-5.4,1v1.9h16v-1.9l-5.4-1v-14.5l11.3-21.3
		L333.5,100.8L333.5,100.8z M362.2,128.7c0,3.9-1.1,7-3.3,9.3c-2.2,2.3-5.3,3.4-9.3,3.4c-4.8,0-8.5-1-11.2-3.1l-0.6-8.7l1.7-0.4
		c0.9,6.7,4.2,10.1,9.8,10.1c2.6,0,4.6-0.7,6-2c1.4-1.3,2.2-3.3,2.2-5.8c0-2.7-1.6-5.1-4.8-7c-3-1.7-5.9-3.5-8.9-5.2
		c-3.2-2.5-4.7-5.9-4.7-10c0-3.5,1.2-6.3,3.5-8.4c2.3-2,5.2-3,8.7-3c1,0,2.3,0.2,4,0.5c2,0.5,3.3,0.7,4,0.8l0.7,8l-1.6,0.3
		c-0.5-2.3-1.2-4-2.2-5.2c-1.2-1.3-3-1.9-5.2-1.9c-2.2,0-3.9,0.7-5.2,2.1c-1.3,1.4-1.9,3.2-1.9,5.3c0,3.2,1.6,5.8,4.7,7.9
		c3,1.6,6,3.2,8.9,4.8C360.6,122.7,362.2,125.4,362.2,128.7L362.2,128.7z M395.3,132l-2.2,8.5h-26.7v-1.9l4.3-1v-35.8l-4.3-1v-1.9
		h24.1l0.8,7.6h-1.6l-1.5-4.5H376v15.6h10.2l1.1-3h1.5c-0.3,3.2-0.3,6.2,0,9.1h-1.5l-1-3.3H376v16.6h15.4l2.2-5.1H395.3L395.3,132z
		 M444.4,129c0,3.6-1.1,6.4-3.4,8.5c-2.3,2.1-5.2,3.1-8.9,3.1h-16.7v-1.9l4.3-1v-35.8l-4.3-1v-1.9h14.2c3.8,0,6.7,0.5,8.5,1.6
		c2.4,1.4,3.6,3.9,3.6,7.5c0,4.8-2.6,8.3-7.8,10.5c0.9,0.1,1.6,0.1,2,0.1c2.5,0,4.5,1.2,6.1,3.5C443.7,124.2,444.4,126.5,444.4,129
		L444.4,129z M436.5,109.5c0-5.8-2.8-8.7-8.4-8.7c-0.7,0-1.7,0.1-3.1,0.3v17c4.2-0.1,6.9-0.5,8.3-1.3
		C435.4,115.7,436.5,113.2,436.5,109.5L436.5,109.5z M439.1,129.9c0-3.3-1.1-5.8-3.2-7.6c-2-1.6-4.7-2.5-8.1-2.5
		c-0.6,0-1.6,0.1-2.8,0.4v17.3c2.8,0.8,4.9,1.2,6.3,1.2C436.5,138.7,439.1,135.8,439.1,129.9L439.1,129.9z M484.1,140.1l-0.5,1.6
		c-2.1-0.5-4.2-1.1-6.3-1.7c-1.8-0.5-6.2-6.3-13-17.4c-1.7,0.1-3.7,0.2-6,0.2v14.8l1.4,1v1.9h-11.2v-1.9l4.6-1v-35.8l-4.6-1v-1.9
		h16.8c3.2,0,5.8,0.9,7.7,2.7c1.9,1.8,2.9,4.2,2.9,7.4c0,4.8-2.3,8.9-6.9,12.4c3.9,6,6.2,9.5,6.8,10.4
		C479.2,136.3,481.9,139.1,484.1,140.1L484.1,140.1z M470.7,111.5c0-7-3.1-10.5-9.4-10.5c-1.1,0-2.1,0.1-3,0.4v19c2.3,0,3.6,0,3.8,0
		c3.4,0,5.7-0.6,6.9-1.8C470.1,117.3,470.7,114.9,470.7,111.5L470.7,111.5z M502,100.8l-4.3,1v35.8l4.3,1v1.9h-13.8v-1.9l4.3-1
		v-35.8l-4.3-1v-1.9H502V100.8L502,100.8z M543.4,107.8h-1.9l-1.2-5.5c-1.5,0-3.7,0-6.5-0.1c-3-0.1-5.1-0.1-6.5-0.1v35.6l5,1v1.9
		h-15.3v-1.9l5.1-1v-35.6c-1.4,0-3.5,0-6.2,0.1c-2.7,0.1-4.8,0.1-6.2,0.1l-1.2,5.5h-1.9l0.5-8.9H543L543.4,107.8L543.4,107.8z
		 M588.2,121.2c0,6-1.7,10.9-5.2,14.5c-3.6,3.8-8.4,5.7-14.4,5.7c-6.6,0-11.7-1.9-15.3-5.7c-3.6-3.7-5.4-8.9-5.4-15.5
		c0-6.5,1.6-11.7,4.7-15.7c3.4-4.4,8.3-6.6,14.6-6.6c6.8,0,12.1,2.2,15.8,6.6C586.5,108.7,588.2,114.3,588.2,121.2L588.2,121.2z
		 M582.5,120.6c0-5.3-1.2-9.8-3.7-13.7c-2.8-4.5-6.7-6.7-11.7-6.7c-4.7,0-8.2,1.8-10.5,5.4c-2,3.1-3,7-3,11.9
		c0,5.9,1.1,10.8,3.2,14.7c2.7,4.8,6.8,7.2,12.2,7.2c4.9,0,8.5-2,10.8-6.1C581.6,130.1,582.5,125.9,582.5,120.6z"/>
	<g>
		<path class="st0" d="M91.7,116.7c0,0,0.7-43.1,25.7-52.9c0,0,16.4-6,13.1,10.7c0,0,17.6-10.5,28.5-0.3c0,0,6.4,6.6-3.5,10.9
			c0,0,12.2,5,7,17.1c-5.2,12-27.5,14.6-32.4,6.9c-5-7.7,7-12.8,8.9-4.5c0,0,1,4-2.6,6.1c0,0,11.6,2.8,11.6-9.9
			C148,87.9,110,71.5,91.7,116.7z"/>
		<path class="st0" d="M83.9,116.7c0,0-0.7-43.1-25.7-52.9c0,0-16.4-6-13.1,10.7c0,0-17.6-10.5-28.5-0.3c0,0-6.4,6.6,3.5,10.9
			c0,0-12.2,5-7,17.1c5.2,12,27.5,14.6,32.4,6.9c5-7.7-7-12.8-8.9-4.5c0,0-1,4,2.6,6.1c0,0-11.6,2.8-11.6-9.9
			C27.6,87.9,65.6,71.5,83.9,116.7z"/>
		<path class="st0" d="M84.2,136.8c0,0-0.2,13.4-8,16.5c0,0-5.1,1.9-4.1-3.3c0,0-5.5,3.3-8.9,0.1c0,0-2-2,1.1-3.4
			c0,0-3.8-1.6-2.2-5.3c1.6-3.7,8.6-4.5,10.1-2.2c1.5,2.4-2.2,4-2.8,1.4c0,0-0.3-1.2,0.8-1.9c0,0-3.6-0.9-3.6,3.1
			C66.7,145.7,78.5,150.9,84.2,136.8z"/>
		<path class="st0" d="M91.1,136.8c0,0,0.2,13.4,8,16.5c0,0,5.1,1.9,4.1-3.3c0,0,5.5,3.3,8.9,0.1c0,0,2-2-1.1-3.4
			c0,0,3.8-1.6,2.2-5.3c-1.6-3.7-8.6-4.5-10.1-2.2c-1.5,2.4,2.2,4,2.8,1.4c0,0,0.3-1.2-0.8-1.9c0,0,3.6-0.9,3.6,3.1
			C108.6,145.7,96.8,150.9,91.1,136.8z"/>
		<ellipse transform="matrix(0.229 -0.9734 0.9734 0.229 -55.3164 182.747)" class="st0" cx="87.7" cy="126.3" rx="6.4" ry="6.4"/>
		<path class="st0" d="M87.5,143.1c0,0-11.2,16.3,0.1,34.7C87.7,177.8,99.4,161.2,87.5,143.1z"/>
		<path class="st0" d="M103.1,67.9c0.4-1.5,1.2-2.8,1.9-4.1c3.1-5.1,6.8-9.8,10.8-14.2c0.9-1,2.1-1.4,3.4-0.9c1.1,0.4,1.8,1.2,2,2.4
			c0.2,1.4-0.3,2.5-1.5,3.2c-4.9,3.1-9.5,6.5-13.6,10.5C105.1,65.8,104.1,66.9,103.1,67.9z"/>
		<path class="st0" d="M72.4,67.9c-0.4-1.5-1.2-2.8-1.9-4.1c-3.1-5.1-6.8-9.8-10.8-14.2c-0.9-1-2.1-1.4-3.4-0.9
			c-1.1,0.4-1.8,1.2-2,2.4c-0.2,1.4,0.3,2.5,1.5,3.2c4.9,3.1,9.5,6.5,13.6,10.5C70.4,65.8,71.4,66.9,72.4,67.9z"/>
		<path class="st0" d="M87.8,99.6c0,0-4.5-35.7-24.2-54.3c0,0-6.5-5.1-6.3-9.9c0.3-4.9,4.3-6.6,6.9-6.6c2.5,0,5,1.1,5,1.1
			s-6.2-6.3-2-12.3c4.2-6.1,12.5-2.2,13.7,0.5c0,0-2.1-11.1,6.9-11.1c9.1,0,6.9,11,6.9,11s6.3-7.1,12.7-1.5c0,0,6.6,6.2-2.3,13.5
			c0,0,3.7-1.2,5.5-1.1c1.8,0.1,6.3,0.7,7.4,5.7c1.1,5-3.9,8.5-5.8,10.4C110.4,46.8,93,62.1,87.8,99.6z"/>
	</g>
	<g>
		<path class="st1" d="M185.6,170.2h-8.3v-14.9h8.3v1.5H179v4.8h6.2v1.5H179v5.5h6.6V170.2z"/>
		<path class="st1" d="M197.3,166.2c0,0.9-0.2,1.6-0.7,2.3c-0.4,0.6-1.1,1.1-1.8,1.4c-0.8,0.3-1.7,0.5-2.8,0.5c-0.6,0-1.1,0-1.6-0.1
			c-0.5-0.1-1-0.1-1.4-0.2c-0.4-0.1-0.8-0.2-1.1-0.4V168c0.5,0.2,1.1,0.4,1.9,0.6c0.7,0.2,1.5,0.3,2.3,0.3c0.7,0,1.4-0.1,1.9-0.3
			c0.5-0.2,0.9-0.5,1.2-0.9c0.3-0.4,0.4-0.8,0.4-1.4c0-0.5-0.1-0.9-0.3-1.3s-0.6-0.7-1.1-0.9c-0.5-0.3-1.2-0.6-2.1-0.9
			c-0.6-0.2-1.2-0.5-1.7-0.7c-0.5-0.3-0.9-0.6-1.2-0.9c-0.3-0.3-0.6-0.7-0.7-1.2c-0.2-0.4-0.2-1-0.2-1.5c0-0.8,0.2-1.5,0.6-2
			c0.4-0.6,1-1,1.7-1.3c0.7-0.3,1.5-0.5,2.5-0.5c0.8,0,1.5,0.1,2.2,0.2c0.7,0.1,1.3,0.4,1.9,0.6l-0.5,1.5c-0.5-0.2-1.1-0.4-1.7-0.6
			c-0.6-0.1-1.2-0.2-1.9-0.2c-0.6,0-1.2,0.1-1.6,0.3c-0.4,0.2-0.8,0.5-1,0.8c-0.2,0.3-0.3,0.7-0.3,1.2c0,0.5,0.1,1,0.3,1.3
			c0.2,0.3,0.6,0.7,1.1,0.9c0.5,0.3,1.1,0.5,1.9,0.8c0.9,0.3,1.6,0.7,2.2,1c0.6,0.4,1.1,0.8,1.4,1.3
			C197.1,164.8,197.3,165.4,197.3,166.2z"/>
		<path class="st1" d="M204.9,170.2h-1.7v-13.4h-4.7v-1.5h11.1v1.5h-4.7V170.2z"/>
		<path class="st1" d="M220.1,170.2h-8.3v-14.9h8.3v1.5h-6.6v4.8h6.2v1.5h-6.2v5.5h6.6V170.2z M219.1,150.4v0.2
			c-0.1,0.2-0.3,0.4-0.6,0.7c-0.2,0.3-0.5,0.6-0.8,0.9c-0.3,0.3-0.6,0.6-0.9,0.9c-0.3,0.3-0.6,0.5-0.8,0.7H215v-0.2
			c0.2-0.3,0.5-0.6,0.7-0.9c0.3-0.4,0.5-0.7,0.8-1.1c0.2-0.4,0.4-0.7,0.6-1H219.1z"/>
		<path class="st1" d="M228,170.2h-1.7v-13.4h-4.7v-1.5h11.1v1.5H228V170.2z"/>
		<path class="st1" d="M234.9,170.2v-14.9h1.7v14.9H234.9z"/>
		<path class="st1" d="M247.1,156.6c-0.8,0-1.6,0.1-2.2,0.4c-0.7,0.3-1.2,0.7-1.7,1.2c-0.5,0.5-0.8,1.2-1.1,1.9
			c-0.2,0.8-0.4,1.6-0.4,2.5c0,1.3,0.2,2.3,0.6,3.3c0.4,0.9,1,1.6,1.8,2.1c0.8,0.5,1.8,0.8,2.9,0.8c0.7,0,1.3-0.1,1.9-0.2
			c0.6-0.1,1.2-0.3,1.7-0.4v1.5c-0.5,0.2-1.1,0.4-1.7,0.5c-0.6,0.1-1.3,0.1-2.1,0.1c-1.5,0-2.8-0.3-3.8-0.9c-1-0.6-1.8-1.5-2.3-2.7
			c-0.5-1.1-0.8-2.5-0.8-4.1c0-1.1,0.2-2.2,0.5-3.1s0.8-1.7,1.4-2.4c0.6-0.7,1.4-1.2,2.2-1.6c0.9-0.4,1.9-0.6,3.1-0.6
			c0.8,0,1.5,0.1,2.2,0.2c0.7,0.1,1.3,0.4,1.9,0.6l-0.7,1.5c-0.5-0.2-1-0.4-1.6-0.6C248.4,156.7,247.8,156.6,247.1,156.6z"/>
		<path class="st1" d="M263.3,170.2l-1.8-4.7h-6l-1.8,4.7h-1.8l5.8-15h1.6l5.8,15H263.3z M260.9,163.9l-1.7-4.7
			c0-0.1-0.1-0.3-0.2-0.6c-0.1-0.3-0.2-0.6-0.3-0.9c-0.1-0.3-0.2-0.5-0.2-0.7c-0.1,0.3-0.1,0.6-0.2,0.8c-0.1,0.3-0.2,0.5-0.2,0.8
			c-0.1,0.2-0.1,0.4-0.2,0.6l-1.8,4.7H260.9z"/>
		<path class="st1" d="M280.9,170.2h-8.3v-14.9h8.3v1.5h-6.6v4.8h6.2v1.5h-6.2v5.5h6.6V170.2z"/>
		<path class="st1" d="M297.9,170.2h-8.3v-14.9h8.3v1.5h-6.6v4.8h6.2v1.5h-6.2v5.5h6.6V170.2z"/>
		<path class="st1" d="M307.8,170.2l-5-13.2h-0.1c0,0.3,0.1,0.6,0.1,1c0,0.4,0,0.8,0.1,1.3c0,0.5,0,1,0,1.4v9.4h-1.6v-14.9h2.6
			l4.7,12.4h0.1l4.8-12.4h2.5v14.9h-1.7v-9.5c0-0.4,0-0.9,0-1.3c0-0.4,0-0.9,0.1-1.3c0-0.4,0-0.7,0.1-1h-0.1l-5.1,13.2H307.8z"/>
		<path class="st1" d="M329.3,170.2l-1.8-4.7h-6l-1.8,4.7h-1.8l5.8-15h1.6l5.8,15H329.3z M327,163.9l-1.7-4.7c0-0.1-0.1-0.3-0.2-0.6
			c-0.1-0.3-0.2-0.6-0.3-0.9c-0.1-0.3-0.2-0.5-0.2-0.7c-0.1,0.3-0.1,0.6-0.2,0.8c-0.1,0.3-0.2,0.5-0.2,0.8c-0.1,0.2-0.1,0.4-0.2,0.6
			l-1.8,4.7H327z"/>
		<path class="st1" d="M339.6,162.4h5.2v7.2c-0.8,0.3-1.6,0.5-2.4,0.6c-0.8,0.1-1.7,0.2-2.8,0.2c-1.6,0-2.9-0.3-3.9-0.9
			c-1.1-0.6-1.9-1.5-2.4-2.6c-0.6-1.1-0.8-2.5-0.8-4.1c0-1.5,0.3-2.9,0.9-4c0.6-1.1,1.5-2,2.6-2.7c1.2-0.6,2.5-1,4.2-1
			c0.8,0,1.6,0.1,2.4,0.2c0.7,0.2,1.4,0.4,2.1,0.6l-0.7,1.5c-0.6-0.2-1.2-0.4-1.8-0.6c-0.7-0.2-1.3-0.3-2.1-0.3
			c-1.2,0-2.3,0.3-3.1,0.8c-0.9,0.5-1.5,1.2-2,2.1c-0.5,0.9-0.7,2-0.7,3.3c0,1.2,0.2,2.3,0.6,3.2c0.4,0.9,1,1.6,1.9,2.1
			c0.9,0.5,1.9,0.8,3.3,0.8c0.7,0,1.3,0,1.7-0.1c0.5-0.1,0.9-0.2,1.3-0.3v-4.6h-3.5V162.4z"/>
		<path class="st1" d="M352.4,155.3c1.2,0,2.2,0.2,3,0.5s1.4,0.8,1.8,1.4c0.4,0.6,0.6,1.4,0.6,2.4c0,0.8-0.1,1.4-0.4,2
			c-0.3,0.5-0.7,1-1.1,1.3c-0.5,0.3-1,0.6-1.5,0.8l4.1,6.7h-2l-3.7-6.2h-3.1v6.2h-1.7v-14.9H352.4z M352.3,156.8h-2.2v5.7h2.4
			c1.2,0,2.1-0.2,2.7-0.7c0.6-0.5,0.9-1.2,0.9-2.2c0-1-0.3-1.7-0.9-2.2C354.5,157,353.6,156.8,352.3,156.8z"/>
		<path class="st1" d="M369.6,170.2h-8.3v-14.9h8.3v1.5H363v4.8h6.2v1.5H363v5.5h6.6V170.2z"/>
		<path class="st1" d="M379.2,156.6c-0.8,0-1.6,0.1-2.2,0.4c-0.7,0.3-1.2,0.7-1.7,1.2c-0.5,0.5-0.8,1.2-1.1,1.9
			c-0.2,0.8-0.4,1.6-0.4,2.5c0,1.3,0.2,2.3,0.6,3.3c0.4,0.9,1,1.6,1.8,2.1c0.8,0.5,1.8,0.8,2.9,0.8c0.7,0,1.3-0.1,1.9-0.2
			c0.6-0.1,1.2-0.3,1.7-0.4v1.5c-0.5,0.2-1.1,0.4-1.7,0.5c-0.6,0.1-1.3,0.1-2.1,0.1c-1.5,0-2.8-0.3-3.8-0.9c-1-0.6-1.8-1.5-2.3-2.7
			c-0.5-1.1-0.8-2.5-0.8-4.1c0-1.1,0.2-2.2,0.5-3.1c0.3-0.9,0.8-1.7,1.4-2.4c0.6-0.7,1.4-1.2,2.2-1.6c0.9-0.4,1.9-0.6,3.1-0.6
			c0.8,0,1.5,0.1,2.2,0.2c0.7,0.1,1.3,0.4,1.9,0.6l-0.7,1.5c-0.5-0.2-1-0.4-1.6-0.6C380.5,156.7,379.9,156.6,379.2,156.6z"/>
		<path class="st1" d="M386,170.2v-14.9h1.7v14.9H386z"/>
		<path class="st1" d="M398.4,170.2l-5-13.2h-0.1c0,0.3,0.1,0.6,0.1,1c0,0.4,0,0.8,0.1,1.3c0,0.5,0,1,0,1.4v9.4h-1.6v-14.9h2.6
			l4.7,12.4h0.1l4.8-12.4h2.5v14.9h-1.7v-9.5c0-0.4,0-0.9,0-1.3c0-0.4,0-0.9,0.1-1.3c0-0.4,0-0.7,0.1-1h-0.1l-5.1,13.2H398.4z"/>
		<path class="st1" d="M418.9,170.2h-8.3v-14.9h8.3v1.5h-6.6v4.8h6.2v1.5h-6.2v5.5h6.6V170.2z"/>
		<path class="st1" d="M433.9,170.2h-2l-8.1-12.5h-0.1c0,0.3,0,0.7,0.1,1.1c0,0.4,0,0.9,0.1,1.4c0,0.5,0,1,0,1.5v8.6h-1.6v-14.9h2
			l8.1,12.5h0.1c0-0.2,0-0.6-0.1-1c0-0.4,0-0.9-0.1-1.4c0-0.5,0-1,0-1.4v-8.6h1.6V170.2z"/>
		<path class="st1" d="M442.6,170.2h-1.7v-13.4h-4.7v-1.5h11.1v1.5h-4.7V170.2z"/>
		<path class="st1" d="M462.4,162.7c0,1.1-0.1,2.2-0.4,3.1c-0.3,0.9-0.7,1.8-1.3,2.4c-0.6,0.7-1.3,1.2-2.1,1.6
			c-0.9,0.4-1.8,0.6-3,0.6c-1.2,0-2.2-0.2-3-0.6c-0.9-0.4-1.6-0.9-2.1-1.6c-0.6-0.7-1-1.5-1.3-2.4c-0.3-0.9-0.4-2-0.4-3.1
			c0-1.5,0.3-2.9,0.8-4s1.3-2,2.3-2.7c1-0.6,2.3-1,3.9-1c1.5,0,2.7,0.3,3.7,0.9c1,0.6,1.8,1.5,2.3,2.7
			C462.2,159.8,462.4,161.2,462.4,162.7z M450.5,162.7c0,1.3,0.2,2.4,0.5,3.3c0.4,0.9,0.9,1.6,1.7,2.1c0.7,0.5,1.7,0.8,2.8,0.8
			c1.2,0,2.1-0.3,2.8-0.8c0.7-0.5,1.3-1.2,1.6-2.1c0.4-0.9,0.5-2,0.5-3.3c0-1.9-0.4-3.4-1.2-4.5s-2.1-1.6-3.8-1.6
			c-1.2,0-2.1,0.2-2.9,0.7c-0.7,0.5-1.3,1.2-1.7,2.1C450.7,160.4,450.5,161.4,450.5,162.7z"/>
	</g>
	<g>
		<path class="st1" d="M184.4,72.1c-0.8,0-1.6,0.1-2.2,0.4c-0.7,0.3-1.2,0.7-1.7,1.2c-0.5,0.5-0.8,1.2-1.1,1.9
			c-0.2,0.8-0.4,1.6-0.4,2.5c0,1.3,0.2,2.3,0.6,3.3c0.4,0.9,1,1.6,1.8,2.1c0.8,0.5,1.8,0.8,2.9,0.8c0.7,0,1.3-0.1,1.9-0.2
			c0.6-0.1,1.2-0.3,1.7-0.4v1.5c-0.5,0.2-1.1,0.4-1.7,0.5c-0.6,0.1-1.3,0.1-2.1,0.1c-1.5,0-2.8-0.3-3.8-0.9c-1-0.6-1.8-1.5-2.3-2.7
			c-0.5-1.1-0.8-2.5-0.8-4.1c0-1.1,0.2-2.2,0.5-3.1c0.3-0.9,0.8-1.7,1.4-2.4c0.6-0.7,1.4-1.2,2.2-1.6c0.9-0.4,1.9-0.6,3.1-0.6
			c0.8,0,1.5,0.1,2.2,0.2c0.7,0.1,1.3,0.4,1.9,0.6l-0.7,1.5c-0.5-0.2-1-0.4-1.6-0.6C185.7,72.2,185.1,72.1,184.4,72.1z"/>
		<path class="st1" d="M191.2,85.7V70.8h1.7v13.4h6.6v1.6H191.2z"/>
		<path class="st1" d="M206,66v0.2c-0.1,0.2-0.3,0.4-0.6,0.7c-0.2,0.3-0.5,0.6-0.8,0.9c-0.3,0.3-0.6,0.6-0.9,0.9
			c-0.3,0.3-0.6,0.5-0.8,0.7h-1.1v-0.2c0.2-0.3,0.5-0.6,0.7-0.9c0.3-0.4,0.5-0.7,0.8-1.1c0.2-0.4,0.4-0.7,0.6-1H206z M202.1,85.7
			V70.8h1.7v14.9H202.1z"/>
		<path class="st1" d="M219.6,85.7h-2l-8.1-12.5h-0.1c0,0.3,0,0.7,0.1,1.1c0,0.4,0,0.9,0.1,1.4c0,0.5,0,1,0,1.5v8.6h-1.6V70.8h2
			l8.1,12.5h0.1c0-0.2,0-0.6-0.1-1c0-0.4,0-0.9-0.1-1.4c0-0.5,0-1,0-1.4v-8.6h1.6V85.7z"/>
		<path class="st1" d="M223.6,85.7V70.8h1.7v14.9H223.6z"/>
		<path class="st1" d="M235.9,72.1c-0.8,0-1.6,0.1-2.2,0.4c-0.7,0.3-1.2,0.7-1.7,1.2c-0.5,0.5-0.8,1.2-1.1,1.9
			c-0.2,0.8-0.4,1.6-0.4,2.5c0,1.3,0.2,2.3,0.6,3.3c0.4,0.9,1,1.6,1.8,2.1c0.8,0.5,1.8,0.8,2.9,0.8c0.7,0,1.3-0.1,1.9-0.2
			c0.6-0.1,1.2-0.3,1.7-0.4v1.5c-0.5,0.2-1.1,0.4-1.7,0.5c-0.6,0.1-1.3,0.1-2.1,0.1c-1.5,0-2.8-0.3-3.8-0.9c-1-0.6-1.8-1.5-2.3-2.7
			c-0.5-1.1-0.8-2.5-0.8-4.1c0-1.1,0.2-2.2,0.5-3.1c0.3-0.9,0.8-1.7,1.4-2.4c0.6-0.7,1.4-1.2,2.2-1.6c0.9-0.4,1.9-0.6,3.1-0.6
			c0.8,0,1.5,0.1,2.2,0.2c0.7,0.1,1.3,0.4,1.9,0.6l-0.7,1.5c-0.5-0.2-1-0.4-1.6-0.6C237.1,72.2,236.5,72.1,235.9,72.1z"/>
		<path class="st1" d="M252,85.7l-1.8-4.7h-6l-1.8,4.7h-1.8l5.8-15h1.6l5.8,15H252z M249.6,79.5l-1.7-4.7c0-0.1-0.1-0.3-0.2-0.6
			c-0.1-0.3-0.2-0.6-0.3-0.9c-0.1-0.3-0.2-0.5-0.2-0.7c-0.1,0.3-0.1,0.6-0.2,0.8c-0.1,0.3-0.2,0.5-0.2,0.8c-0.1,0.2-0.1,0.4-0.2,0.6
			l-1.8,4.7H249.6z"/>
	</g>
</g>
</svg>
